# File created by Blade
# Date/Time:  Thu Jan 22 19:09:08 2015
#---------------------------------------------------------
:version 1.10
:name HOM
:units
  mass 1.0
  length 1.000000
  angle deg
:documentation
     Acclaim Skeleton File
:root
   axis xyz
   order TX TY TZ RX RY RZ
   position 0.000000 0.000000 0.000000
   orientation 0 0 0
:bonedata
   begin
      id 1
      name RightUpLeg_dum
      direction -1.000000 0.000000 0.000000
      length 4.478084
      axis 0.0 0.0 0.0 xyz
   end
   begin
      id 2
      name LeftUpLeg_dum
      direction 1.000000 0.000000 0.000000
      length 4.478084
      axis 0.0 0.0 0.0 xyz
   end
   begin
      id 3
      name Spine_dum
      direction 0.000000 1.000000 0.000000
      length 6.068208
      axis 0.0 0.0 0.0 xyz
   end
   begin
      id 4
      name RightUpLeg
      direction 0.000000 -1.000000 0.000000
      length 16.405774
      axis 0.0 0.0 0.0 xyz
      dof rx ry rz
   end
   begin
      id 5
      name RightLeg
      direction 0.000000 -1.000000 0.000000
      length 14.644143
      axis 0.0 0.0 0.0 xyz
      dof rx ry rz
   end
   begin
      id 6
      name RightFoot
      direction 0.000000 -0.258819 0.965926
      length 5.806150
      axis 15.0 0.0 0.0 xyz
      dof rx ry rz
   end
   begin
      id 7
      name RightToeBase
      direction 0.000000 0.000000 1.000000
      length 2.952750
      axis 0.0 0.0 0.0 xyz
      dof rx ry rz
   end
   begin
      id 8
      name LeftUpLeg
      direction 0.000000 -1.000000 0.000000
      length 16.405774
      axis 0.0 0.0 0.0 xyz
      dof rx ry rz
   end
   begin
      id 9
      name LeftLeg
      direction 0.000000 -1.000000 0.000000
      length 14.644143
      axis 0.0 0.0 0.0 xyz
      dof rx ry rz
   end
   begin
      id 10
      name LeftFoot
      direction 0.000000 -0.258819 0.965926
      length 5.806150
      axis 15.0 0.0 0.0 xyz
      dof rx ry rz
   end
   begin
      id 11
      name LeftToeBase
      direction 0.000000 0.000000 1.000000
      length 2.952750
      axis 0.0 0.0 0.0 xyz
      dof rx ry rz
   end
   begin
      id 12
      name Spine
      direction 0.000000 1.000000 0.000000
      length 0.000000
      axis 0.0 0.0 0.0 xyz
      dof rx ry rz
   end
   begin
      id 13
      name Spine_dum1
      direction 0.000000 1.000000 0.000000
      length 10.013923
      axis 0.0 0.0 0.0 xyz
   end
   begin
      id 14
      name Spine_dum2
      direction 0.000000 1.000000 0.000000
      length 10.013923
      axis 0.0 0.0 0.0 xyz
   end
   begin
      id 15
      name Spine_dum3
      direction 0.000000 1.000000 0.000000
      length 15.777476
      axis 0.0 0.0 0.0 xyz
   end
   begin
      id 16
      name RightShoulder
      direction -1.000000 0.000000 0.000000
      length 7.190220
      axis 0.0 0.0 90.0 xyz
      dof rx ry rz
   end
   begin
      id 17
      name RightArm
      direction -1.000000 0.000000 0.000000
      length 10.177469
      axis 0.0 0.0 90.0 xyz
      dof rx ry rz
   end
   begin
      id 18
      name RightForeArm
      direction -1.000000 0.000000 0.000000
      length 8.392114
      axis 0.0 0.0 90.0 xyz
      dof ry rz rx
   end
   begin
      id 19
      name RightHand
      direction -1.000000 0.000000 0.000000
      length 0.000000
      axis 0.0 0.0 90.0 xyz
      dof rx ry rz
   end
   begin
      id 20
      name RightHand_dum1
      direction -1.000000 0.000000 0.000000
      length 3.937000
      axis 0.0 0.0 90.0 xyz
   end
   begin
      id 21
      name RightHand_dum2
      direction 0.000000 0.000000 0.000000
      length 0.000000
      axis 0.0 0.0 90.0 xyz
   end
   begin
      id 22
      name RightHandThumb1
      direction 0.000000 0.000000 1.000000
      length 3.937000
      axis 0.0 0.0 90.0 xyz
      dof rx rz ry
   end
   begin
      id 23
      name LeftShoulder
      direction 1.000000 0.000000 0.000000
      length 7.190220
      axis 0.0 0.0 -90.0 xyz
      dof rx ry rz
   end
   begin
      id 24
      name LeftArm
      direction 1.000000 0.000000 0.000000
      length 10.177469
      axis 0.0 0.0 -90.0 xyz
      dof rx ry rz
   end
   begin
      id 25
      name LeftForeArm
      direction 1.000000 0.000000 0.000000
      length 8.392114
      axis 0.0 0.0 -90.0 xyz
      dof ry rz rx
   end
   begin
      id 26
      name LeftHand
      direction 1.000000 0.000000 0.000000
      length 0.000000
      axis 0.0 0.0 -90.0 xyz
      dof rx ry rz
   end
   begin
      id 27
      name LeftHand_dum1
      direction 1.000000 0.000000 0.000000
      length 3.937000
      axis 0.0 0.0 -90.0 xyz
   end
   begin
      id 28
      name LeftHand_dum2
      direction 0.000000 0.000000 0.000000
      length 0.000000
      axis 0.0 0.0 -90.0 xyz
   end
   begin
      id 29
      name LeftHandThumb1
      direction 0.000000 0.000000 1.000000
      length 3.937000
      axis 0.0 0.0 -90.0 xyz
      dof rx rz ry
   end
   begin
      id 30
      name Head
      direction 0.000000 1.000000 0.000000
      length 4.527550
      axis 0.0 0.0 0.0 xyz
      dof rx ry rz
   end
:hierarchy
   begin
      root RightUpLeg_dum LeftUpLeg_dum Spine_dum
      RightUpLeg_dum RightUpLeg
      LeftUpLeg_dum LeftUpLeg
      Spine_dum Spine
      RightUpLeg RightLeg
      RightLeg RightFoot
      RightFoot RightToeBase
      LeftUpLeg LeftLeg
      LeftLeg LeftFoot
      LeftFoot LeftToeBase
      Spine Spine_dum1 Spine_dum2 Spine_dum3
      Spine_dum1 RightShoulder
      Spine_dum2 LeftShoulder
      Spine_dum3 Head
      RightShoulder RightArm
      RightArm RightForeArm
      RightForeArm RightHand
      RightHand RightHand_dum1 RightHand_dum2
      RightHand_dum2 RightHandThumb1
      LeftShoulder LeftArm
      LeftArm LeftForeArm
      LeftForeArm LeftHand
      LeftHand LeftHand_dum1 LeftHand_dum2
      LeftHand_dum2 LeftHandThumb1
   end

# File created by Blade
# Date/Time:  Thu Jan 22 19:08:58 2015
# Frame Rate: 120.000 fps
#------------------------------------------------------
:FULLY-SPECIFIED
:DEGREES
344
root -1.440015 32.221400 -0.278395 86.252920 78.557598 75.665708
RightUpLeg 4.138204 -33.942943 -1.566907
RightLeg 4.783418 -0.000000 -0.000000
RightFoot -25.854721 -26.324279 7.934730
RightToeBase 0.086268 -0.000000 -0.000000
LeftUpLeg -33.147246 -40.802007 6.074474
LeftLeg 10.791346 -0.000000 -0.000000
LeftFoot 2.223044 -28.174052 -8.367256
LeftToeBase 9.531803 -0.000000 -0.000000
Spine -7.433168 36.041910 -8.433313
RightShoulder -0.459598 11.033625 -39.449460
RightArm 57.601138 11.678984 51.017959
RightForeArm -15.870646 0.000000 8.887506
RightHand 7.591958 -0.000000 9.047461
RightHandThumb1 -24.326973 -0.000000 -32.862282
LeftShoulder -28.514752 17.019196 24.498811
LeftArm -11.279669 -24.905234 -43.023531
LeftForeArm 7.243484 -0.000000 0.664688
LeftHand -12.358712 -0.000000 1.777091
LeftHandThumb1 -26.253704 0.000000 33.147579
Head -4.978775 63.096027 -22.773219
345
root -1.441701 32.220250 -0.271861 86.213550 78.564208 75.650257
RightUpLeg 4.116982 -33.883649 -1.545885
RightLeg 4.859502 -0.000000 -0.000000
RightFoot -25.902399 -26.410093 7.968413
RightToeBase 0.102458 -0.000000 -0.000000
LeftUpLeg -33.142544 -40.831303 6.082023
LeftLeg 10.820085 -0.000000 -0.000000
LeftFoot 2.201768 -28.126924 -8.271752
LeftToeBase 9.521868 -0.000000 -0.000000
Spine -7.412244 35.928380 -8.381944
RightShoulder -0.475619 10.975955 -39.411076
RightArm 57.681121 11.683811 51.037881
RightForeArm -15.967596 -0.000000 8.904357
RightHand 7.583200 -0.000000 9.011804
RightHandThumb1 -24.326973 -0.000000 -32.862282
LeftShoulder -28.501378 17.015434 24.515925
LeftArm -11.201617 -24.937012 -43.071507
LeftForeArm 7.398065 -0.000000 0.687682
LeftHand -12.473070 -0.000000 1.874888
LeftHandThumb1 -26.253704 0.000000 33.147579
Head -4.990177 63.059036 -22.716681
346
root -1.443967 32.218658 -0.265161 86.221462 78.561091 75.677107
RightUpLeg 4.095275 -33.831010 -1.533367
RightLeg 4.929617 -0.000000 -0.000000
RightFoot -25.956024 -26.484805 7.982746
RightToeBase 0.121023 -0.000000 -0.000000
LeftUpLeg -33.134818 -40.830214 6.071315
LeftLeg 10.842838 -0.000000 -0.000000
LeftFoot 2.202703 -28.141487 -8.200117
LeftToeBase 9.452142 -0.000000 -0.000000
Spine -7.395608 35.836903 -8.353634
RightShoulder -0.495446 10.941512 -39.373246
RightArm 57.704184 11.619711 50.926925
RightForeArm -15.940784 -0.000000 8.894927
RightHand 7.594494 -0.000000 8.976916
RightHandThumb1 -24.326973 -0.000000 -32.862282
LeftShoulder -28.478595 16.999591 24.513848
LeftArm -11.091684 -24.888432 -43.096804
LeftForeArm 7.583566 -0.000000 0.676364
LeftHand -12.590707 -0.000000 2.158997
LeftHandThumb1 -26.253704 0.000000 33.147579
Head -5.033585 63.009746 -22.665417
347
root -1.445596 32.216070 -0.258090 86.299268 78.560074 75.777202
RightUpLeg 4.092138 -33.822794 -1.531950
RightLeg 4.984563 -0.000000 -0.000000
RightFoot -26.008958 -26.510733 8.006903
RightToeBase 0.078373 -0.000000 -0.000000
LeftUpLeg -33.110187 -40.819232 6.053328
LeftLeg 10.845400 -0.000000 -0.000000
LeftFoot 2.229715 -28.181457 -8.240188
LeftToeBase 9.459477 -0.000000 -0.000000
Spine -7.371648 35.752247 -8.328155
RightShoulder -0.532001 10.937464 -39.327230
RightArm 57.724785 11.530883 50.803378
RightForeArm -15.874105 -0.000000 8.850003
RightHand 7.597355 -0.000000 8.920270
RightHandThumb1 -24.326973 -0.000000 -32.862282
LeftShoulder -28.442489 16.938901 24.531316
LeftArm -11.032832 -24.842131 -43.069598
LeftForeArm 7.600711 0.000000 0.679226
LeftHand -12.599523 0.000000 2.204973
LeftHandThumb1 -26.253704 0.000000 33.147579
Head -5.120340 62.948798 -22.656840
348
root -1.447254 32.213410 -0.251457 86.377979 78.555022 75.875706
RightUpLeg 4.096911 -33.835778 -1.538730
RightLeg 5.026228 -0.000000 -0.000000
RightFoot -26.047333 -26.513783 8.003280
RightToeBase 0.066570 -0.000000 -0.000000
LeftUpLeg -33.073837 -40.789700 6.025788
LeftLeg 10.824645 -0.000000 -0.000000
LeftFoot 2.236034 -28.241521 -8.235423
LeftToeBase 9.402716 -0.000000 -0.000000
Spine -7.351657 35.687162 -8.309967
RightShoulder -0.577126 10.895873 -39.310996
RightArm 57.730074 11.509469 50.786629
RightForeArm -16.045570 0.000000 8.879270
RightHand 7.668665 -0.000000 8.944594
RightHandThumb1 -24.326973 -0.000000 -32.862282
LeftShoulder -28.397935 16.903219 24.530324
LeftArm -10.937209 -24.756124 -43.051881
LeftForeArm 7.637009 -0.000000 0.645620
LeftHand -12.647063 0.000000 2.278268
LeftHandThumb1 -26.253704 0.000000 33.147579
Head -5.203335 62.884030 -22.638560
349
root -1.450204 32.210303 -0.244390 86.513299 78.548261 76.025568
RightUpLeg 4.100227 -33.854686 -1.545763
RightLeg 5.062248 -0.000000 -0.000000
RightFoot -26.091100 -26.512683 7.983833
RightToeBase 0.121992 -0.000000 -0.000000
LeftUpLeg -33.042507 -40.755742 5.999159
LeftLeg 10.795876 -0.000000 -0.000000
LeftFoot 2.293397 -28.300182 -8.319440
LeftToeBase 9.420661 -0.000000 -0.000000
Spine -7.339498 35.636775 -8.307290
RightShoulder -0.626180 10.824052 -39.303037
RightArm 57.731969 11.480408 50.738391
RightForeArm -16.106211 -0.000000 8.898286
RightHand 7.610752 -0.000000 8.925319
RightHandThumb1 -24.326973 -0.000000 -32.862282
LeftShoulder -28.377381 16.907634 24.520171
LeftArm -10.820239 -24.749021 -43.060794
LeftForeArm 7.809901 -0.000000 0.720010
LeftHand -12.782596 -0.000000 2.377696
LeftHandThumb1 -26.253704 0.000000 33.147579
Head -5.269528 62.788270 -22.597298
